<?xml version="1.0" encoding="UTF-8"?>
<svg version="1.1" xmlns="http://www.w3.org/2000/svg" width="32" height="32">
<path d="M0 0 C3.375 1.6875 3.375 1.6875 6 4 C6.375 6.75 6.375 6.75 6 9 C6.8971875 8.6596875 6.8971875 8.6596875 7.8125 8.3125 C10 8 10 8 11.6184082 9.17504883 C13.41941793 11.55401114 13.34681179 12.9253517 13.29296875 15.88671875 C13.2784668 17.2934082 13.2784668 17.2934082 13.26367188 18.72851562 C13.23853516 19.70498047 13.21339844 20.68144531 13.1875 21.6875 C13.16719727 23.16959961 13.16719727 23.16959961 13.14648438 24.68164062 C13.11112661 27.12132617 13.05731962 29.56073163 13 32 C9.37 32 5.74 32 2 32 C-2 25.375 -2 25.375 -2 22 C-2.66 22 -3.32 22 -4 22 C-4.1546875 23.36125 -4.1546875 23.36125 -4.3125 24.75 C-5.03286195 28.15534738 -5.56721594 29.56721594 -8 32 C-10.69921875 32.390625 -10.69921875 32.390625 -13.6875 32.25 C-14.68136719 32.21390625 -15.67523438 32.1778125 -16.69921875 32.140625 C-17.45847656 32.09421875 -18.21773437 32.0478125 -19 32 C-19.11604679 28.5627834 -19.18719508 25.12606914 -19.25 21.6875 C-19.28351562 20.71103516 -19.31703125 19.73457031 -19.3515625 18.72851562 C-19.36445313 17.79072266 -19.37734375 16.85292969 -19.390625 15.88671875 C-19.41157227 15.02264404 -19.43251953 14.15856934 -19.45410156 13.26831055 C-19 11 -19 11 -17.16308594 9.13208008 C-16.44926758 8.75849365 -15.73544922 8.38490723 -15 8 C-14.01 8.33 -13.02 8.66 -12 9 C-12.12375 8.2575 -12.2475 7.515 -12.375 6.75 C-12 4 -12 4 -9.375 1.6875 C-5.71095292 -0.14452354 -4.01579335 -0.66929889 0 0 Z " fill="#2C62A2" transform="translate(19,0)"/>
<path d="M0 0 C3.375 1.8125 3.375 1.8125 6 4 C6 4.99 6 5.98 6 7 C5.34 7 4.68 7 4 7 C4.020625 8.299375 4.04125 9.59875 4.0625 10.9375 C4.07004972 15.69382325 3.59887117 20.28388953 3 25 C0.47411298 22.63707344 -0.88820837 21.33537489 -2 18 C-1.01 17.67 -0.02 17.34 1 17 C1 13.37 1 9.74 1 6 C-1.64 6 -4.28 6 -7 6 C-7.08086147 7.79093191 -7.13912702 9.58289628 -7.1875 11.375 C-7.22230469 12.37273438 -7.25710938 13.37046875 -7.29296875 14.3984375 C-7.19628906 15.25695313 -7.09960938 16.11546875 -7 17 C-6.01 17.66 -5.02 18.32 -4 19 C-5.98 21.97 -5.98 21.97 -8 25 C-8.61875 24.34 -9.2375 23.68 -9.875 23 C-11.75637427 20.7715451 -11.75637427 20.7715451 -14 21 C-15.88391785 24.26545761 -16.49287967 27.28111761 -17 31 C-17.33 31 -17.66 31 -18 31 C-18 24.07 -18 17.14 -18 10 C-16.35 9.34 -14.7 8.68 -13 8 C-11.80822489 7.01070826 -11.80822489 7.01070826 -11.75 5.125 C-11 3 -11 3 -8.8125 1.25 C-5.48059716 -0.23084571 -3.61207897 -0.51601128 0 0 Z " fill="#1856A0" transform="translate(19,0)"/>
<path d="M0 0 C0.721875 0.00257813 1.44375 0.00515625 2.1875 0.0078125 C2.909375 0.00523437 3.63125 0.00265625 4.375 0 C6.1875 0.1328125 6.1875 0.1328125 7.1875 1.1328125 C7.25976502 2.98568752 7.2713122 4.84115128 7.25 6.6953125 C7.24097656 7.70722656 7.23195313 8.71914062 7.22265625 9.76171875 C7.21105469 10.54417969 7.19945312 11.32664062 7.1875 12.1328125 C3.8875 12.1328125 0.5875 12.1328125 -2.8125 12.1328125 C-2.83937279 10.32039198 -2.85883715 8.50786017 -2.875 6.6953125 C-2.88660156 5.68597656 -2.89820313 4.67664063 -2.91015625 3.63671875 C-2.77625272 0.20343231 -2.77625272 0.20343231 0 0 Z " fill="#7599C6" transform="translate(13.8125,4.8671875)"/>
<path d="M0 0 C0.33 0 0.66 0 1 0 C1.33 4.62 1.66 9.24 2 14 C2.99 12.35 3.98 10.7 5 9 C9.875 10.75 9.875 10.75 11 13 C11.66 12.67 12.32 12.34 13 12 C11.54494569 15.39512672 9.92031741 17.71110257 7 20 C4.69 20.33 2.38 20.66 0 21 C0 14.07 0 7.14 0 0 Z " fill="#2C5FA2" transform="translate(0,11)"/>
<path d="M0 0 C4.60625394 -0.32136655 7.33513904 0.08966924 11 3 C11 3.99 11 4.98 11 6 C10.34 6 9.68 6 9 6 C9.020625 7.299375 9.04125 8.59875 9.0625 9.9375 C9.07004972 14.69382325 8.59887117 19.28388953 8 24 C5.47411298 21.63707344 4.11179163 20.33537489 3 17 C3.99 16.67 4.98 16.34 6 16 C6 12.37 6 8.74 6 5 C3.36 4.67 0.72 4.34 -2 4 C-1.34 2.68 -0.68 1.36 0 0 Z " fill="#10509E" transform="translate(14,1)"/>
<path d="M0 0 C2.64 0 5.28 0 8 0 C7.34 0.66 6.68 1.32 6 2 C6.22816406 2.61488281 6.45632812 3.22976562 6.69140625 3.86328125 C6.97886719 4.67152344 7.26632813 5.47976562 7.5625 6.3125 C7.85253906 7.11300781 8.14257812 7.91351563 8.44140625 8.73828125 C9 11 9 11 8 14 C5 8.375 5 8.375 5 5 C4.34 5 3.68 5 3 5 C2.8453125 6.36125 2.8453125 6.36125 2.6875 7.75 C1.61840121 12.80392157 1.61840121 12.80392157 -1 15 C-3.75426108 15.33747863 -6.2068719 15.18315594 -9 15 C-8.1646875 14.6596875 -8.1646875 14.6596875 -7.3125 14.3125 C-3.0769983 11.9085666 -0.48489655 9.22378653 1.3125 4.6875 C1.539375 3.800625 1.76625 2.91375 2 2 C1.34 1.34 0.68 0.68 0 0 Z " fill="#3582C6" transform="translate(12,17)"/>
<path d="M0 0 C2.64 0 5.28 0 8 0 C8 4.29 8 8.58 8 13 C7.67 13 7.34 13 7 13 C7 11.02 7 9.04 7 7 C6.34 7 5.68 7 5 7 C5 8.65 5 10.3 5 12 C4.34 11.67 3.68 11.34 3 11 C3 9.68 3 8.36 3 7 C2.34 7 1.68 7 1 7 C0.67 7.66 0.34 8.32 0 9 C0 6.03 0 3.06 0 0 Z " fill="#93955B" transform="translate(22,17)"/>
<path d="M0 0 C0.99 0 1.98 0 3 0 C4.61782435 11.12985184 4.61782435 11.12985184 1 16 C0.28598768 19.19395026 0.28598768 19.19395026 0 22 C-0.33 22 -0.66 22 -1 22 C-1.02887814 18.52085059 -1.04675687 15.04173169 -1.0625 11.5625 C-1.07087891 10.56927734 -1.07925781 9.57605469 -1.08789062 8.55273438 C-1.09111328 7.60849609 -1.09433594 6.66425781 -1.09765625 5.69140625 C-1.10289307 4.81685791 -1.10812988 3.94230957 -1.11352539 3.04125977 C-1 1 -1 1 0 0 Z " fill="#0D4D99" transform="translate(2,9)"/>
<path d="M0 0 C0.66 0 1.32 0 2 0 C1.67 5.28 1.34 10.56 1 16 C-0.32 16 -1.64 16 -3 16 C-3.33 12.37 -3.66 8.74 -4 5 C-3.01 5.33 -2.02 5.66 -1 6 C-1.020625 5.195625 -1.04125 4.39125 -1.0625 3.5625 C-1 1 -1 1 0 0 Z " fill="#1D75C2" transform="translate(8,3)"/>
<path d="M0 0 C1.32 0.33 2.64 0.66 4 1 C3.67 3.31 3.34 5.62 3 8 C1.02 8.66 -0.96 9.32 -3 10 C-3.36629408 5.72656908 -2.40814077 3.51187196 0 0 Z " fill="#C1A740" transform="translate(5,20)"/>
<path d="M0 0 C1.485 0.99 1.485 0.99 3 2 C3.99 1.67 4.98 1.34 6 1 C6 2.98 6 4.96 6 7 C7.32 7.66 8.64 8.32 10 9 C7.36 9 4.72 9 2 9 C1.34 6.03 0.68 3.06 0 0 Z " fill="#2774B7" transform="translate(19,23)"/>
<path d="M0 0 C0.66 0.66 1.32 1.32 2 2 C4.10820797 1.6814823 4.10820797 1.6814823 6 1 C5.01 1.495 5.01 1.495 4 2 C4 4.31 4 6.62 4 9 C2.68 9 1.36 9 0 9 C0 6.03 0 3.06 0 0 Z " fill="#347EC3" transform="translate(23,7)"/>
<path d="M0 0 C2.475 0.99 2.475 0.99 5 2 C2.25 7.875 2.25 7.875 0 9 C-0.66 7.35 -1.32 5.7 -2 4 C-1.34 4 -0.68 4 0 4 C0 2.68 0 1.36 0 0 Z " fill="#064999" transform="translate(10,16)"/>
<path d="M0 0 C1.32 0.33 2.64 0.66 4 1 C4 2.98 4 4.96 4 7 C2.68 7 1.36 7 0 7 C0 4.69 0 2.38 0 0 Z " fill="#0E509E" transform="translate(27,9)"/>
<path d="M0 0 C0 2.97 0 5.94 0 9 C-2.52588702 6.63707344 -3.88820837 5.33537489 -5 2 C-1.125 0 -1.125 0 0 0 Z " fill="#064A99" transform="translate(22,16)"/>
<path d="M0 0 C0.66 0.66 1.32 1.32 2 2 C2.66 1.67 3.32 1.34 4 1 C2.55873214 4.36295835 0.79407345 6.62927102 -2 9 C-2.99 9 -3.98 9 -5 9 C-5 8.34 -5 7.68 -5 7 C-3.68 6.67 -2.36 6.34 -1 6 C-0.67 4.02 -0.34 2.04 0 0 Z " fill="#2C6EA4" transform="translate(9,22)"/>
<path d="M0 0 C0.99 0 1.98 0 3 0 C3.33 1.98 3.66 3.96 4 6 C2.35 6.33 0.7 6.66 -1 7 C-0.67 4.69 -0.34 2.38 0 0 Z " fill="#7D9FC9" transform="translate(14,8)"/>
<path d="M0 0 C0.66 0 1.32 0 2 0 C2.66 2.64 3.32 5.28 4 8 C2.02 7.34 0.04 6.68 -2 6 C-1.34 4.02 -0.68 2.04 0 0 Z " fill="#2F638E" transform="translate(27,24)"/>
<path d="M0 0 C0.66 0 1.32 0 2 0 C1.67 2.64 1.34 5.28 1 8 C-0.32 8 -1.64 8 -3 8 C-3.33 7.01 -3.66 6.02 -4 5 C-3.01 5.33 -2.02 5.66 -1 6 C-1.020625 5.195625 -1.04125 4.39125 -1.0625 3.5625 C-1 1 -1 1 0 0 Z " fill="#4B7FBC" transform="translate(8,3)"/>
</svg>
